<svg id="Layer_1" data-name="Layer 1" xmlns="http://www.w3.org/2000/svg" viewBox="0 0 138 64.75"><defs><style>.cls-1{fill:#fff;}</style></defs><title>logo</title><g id="Orange"><g id="Orange_Icon" data-name="Orange Icon"><path class="cls-1" d="M5.12,40.79c.56.55,1.12,1.07,1.66,1.63,1.92,2,3.82,4,5.74,5.95a1,1,0,0,1,.23.73v3.18q0,3.57,0,7.13c0,.32.09.42.4.42q5.06,0,10.11,0a.73.73,0,0,1,.46.25c1,1,2,2.06,3,3.09L31,67.72l1-1q3.18-3.32,6.37-6.64a1,1,0,0,1,.65-.24H49c.3,0,.36-.11.36-.4,0-3.45,0-6.89,0-10.34a1,1,0,0,1,.31-.8c1.56-1.6,3.1-3.21,4.66-4.81a.68.68,0,0,1,.44-.23c1.55,0,3.11,0,4.67,0l.2,0c-.06.08-.09.16-.14.21l-6.18,6.43a.93.93,0,0,0-.28.71c0,4.14,0,8.29,0,12.43,0,.59,0,.59-.58.59h-12a.77.77,0,0,0-.52.22c-2,2-3.92,4.08-5.88,6.12-.93,1-1.87,1.94-2.8,2.92-.18.19-.29.15-.46,0l-3-3.1-5.75-6a.59.59,0,0,0-.4-.16H9.6c-.53,0-.54,0-.54-.56q0-6.24,0-12.5a.87.87,0,0,0-.25-.65C7,48.06,5.18,46.16,3.36,44.27L.13,40.88,0,40.72c.13-.15.24-.3.37-.44l5.68-5.91c.93-1,1.86-1.92,2.76-2.9a1,1,0,0,0,.24-.6q0-6.3,0-12.58c0-.49,0-.49.5-.49q6,0,12,0a.87.87,0,0,0,.67-.29l8.26-8.6c.18-.19.34-.39.54-.63L32.69,10c2.42,2.52,4.84,5,7.27,7.56a.85.85,0,0,0,.55.23l12.07,0c.49,0,.49,0,.49.53q0,6.24,0,12.5a.9.9,0,0,0,.26.68c2,2.08,4,4.17,6,6.26.13.13.24.28.36.42l0,.1H58.54c-1.18,0-2.36,0-3.54,0a.92.92,0,0,1-.61-.26c-1.59-1.63-3.17-3.28-4.74-4.93a1,1,0,0,1-.25-.59q0-5.22,0-10.42c0-.36-.09-.46-.42-.45H39a.84.84,0,0,1-.54-.24Q34.88,17.7,31.35,14c-.2-.21-.33-.25-.56,0-1.42,1.51-2.87,3-4.31,4.5-.92,1-1.84,1.93-2.78,2.88a.9.9,0,0,1-.58.23c-3.29,0-6.58,0-9.86,0h-.48c0,.2,0,.37,0,.54,0,3.36,0,6.72,0,10.09a1.27,1.27,0,0,1-.38,1c-2.35,2.42-4.68,4.87-7,7.3Z" transform="translate(0 -8.28)"/><path class="cls-1" d="M43.88,43.3c-.29.91-.58,1.78-.85,2.66a3.39,3.39,0,0,0-.17.95q0,2.85,0,5.7c0,.35-.13.4-.41.4-1.83,0-3.65,0-5.48,0a4.42,4.42,0,0,0-1.56.47,12.25,12.25,0,0,1-7.45.39c-.69-.18-1.34-.48-2-.71a2.29,2.29,0,0,0-.68-.14c-1.84,0-3.69,0-5.54,0-.36,0-.45-.11-.45-.48,0-1.92,0-3.85,0-5.77a1.82,1.82,0,0,0-.14-.7,13.8,13.8,0,0,1-.66-8.65c.17-.66.43-1.29.63-1.94a3.27,3.27,0,0,0,.17-.87c0-1.9,0-3.8,0-5.7,0-.47,0-.47.47-.47h5.54a1.75,1.75,0,0,0,.71-.16A12.19,12.19,0,0,1,35.5,28a5.59,5.59,0,0,0,2.17.42c1.59,0,3.18,0,4.77,0,.32,0,.42.1.42.44,0,1.9,0,3.8,0,5.7a3.47,3.47,0,0,0,.18,1c.23.82.49,1.62.74,2.43.08.26,0,.35-.26.35-1.06,0-2.13,0-3.19,0A.45.45,0,0,1,40,38c-.26-.63-.51-1.26-.73-1.89a2.51,2.51,0,0,1-.11-.72c0-.92,0-1.85,0-2.77,0-.29-.08-.39-.36-.38-.91,0-1.82,0-2.73,0a2.7,2.7,0,0,1-1-.3,9,9,0,0,0-8.37.17,1.41,1.41,0,0,1-.64.13c-.93,0-1.85,0-2.77,0-.28,0-.37.08-.36.37,0,.94,0,1.88,0,2.82a2.3,2.3,0,0,1-.19.9,9.9,9.9,0,0,0,0,8.66A2.69,2.69,0,0,1,23,46c0,.92,0,1.83,0,2.75,0,.29.07.4.37.39.95,0,1.9,0,2.84,0a1.26,1.26,0,0,1,.57.14,9,9,0,0,0,8.47.1,2.51,2.51,0,0,1,1-.23c.89,0,1.78,0,2.66,0,.27,0,.35-.09.34-.36,0-1,0-2,0-2.92a2.54,2.54,0,0,1,.2-.8c.18-.52.38-1,.6-1.55.06-.13.21-.29.32-.3,1.11,0,2.22,0,3.33,0C43.67,43.23,43.72,43.26,43.88,43.3Z" transform="translate(0 -8.28)"/></g><g id="Orange_Text" data-name="Orange Text"><g id="Orange_Bakong" data-name="Orange Bakong"><path id="G" class="cls-1" d="M132.34,61h2.5v1.46h-4.78V58.29h4.78l1-1.17h-5.66a1.9,1.9,0,0,0-1.3.33,1.73,1.73,0,0,0-.33,1.22v3.47a1.71,1.71,0,0,0,.33,1.23,1.9,1.9,0,0,0,1.3.33h4.54a1.9,1.9,0,0,0,1.3-.33,1.71,1.71,0,0,0,.33-1.23V59.88h-2.87Z" transform="translate(0 -8.28)"/><polygon id="N" class="cls-1" points="122.01 48.83 122.08 53.43 117.12 48.83 115.65 48.83 115.65 55.42 117.02 55.42 116.96 50.81 121.92 55.42 123.39 55.42 123.39 48.83 122.01 48.83"/><path id="O" class="cls-1" d="M102.41,58.67a1.73,1.73,0,0,1,.33-1.22,1.9,1.9,0,0,1,1.3-.33h4.85a1.87,1.87,0,0,1,1.29.33,1.68,1.68,0,0,1,.34,1.22v3.47a1.66,1.66,0,0,1-.34,1.23,1.87,1.87,0,0,1-1.29.33H104a1.9,1.9,0,0,1-1.3-.33,1.71,1.71,0,0,1-.33-1.23Zm1.53,3.79h5V58.29h-5Z" transform="translate(0 -8.28)"/><path id="K" class="cls-1" d="M91,63.7V57.12H92.5v2.74l3.65-2.74h2.22L94,60.22,98.9,63.7H96.44L92.5,60.8v2.9Z" transform="translate(0 -8.28)"/><path id="A" class="cls-1" d="M77.94,63.7l.82-1.44,2.91-5.14h1.48l2.95,5.14.82,1.44H85.2l-.79-1.44H80.24l-.77,1.44Zm3-2.63h2.88l-1.42-2.68Z" transform="translate(0 -8.28)"/><path id="B" class="cls-1" d="M67.16,63.7V57.12H72.8a1.72,1.72,0,0,1,1.13.3,1.25,1.25,0,0,1,.35,1v.81A1,1,0,0,1,74,60a1.48,1.48,0,0,1-.85.36,1.42,1.42,0,0,1,.88.4,1.2,1.2,0,0,1,.31.86v.84a1.08,1.08,0,0,1-.48,1,2.61,2.61,0,0,1-1.46.32Zm5-5.51h-3.5v1.57h3.5a1,1,0,0,0,.55-.11.42.42,0,0,0,.15-.37v-.62a.41.41,0,0,0-.15-.36A.92.92,0,0,0,72.16,58.19Zm0,2.65h-3.5v1.68h3.5a1,1,0,0,0,.59-.13.59.59,0,0,0,.15-.46v-.5a.58.58,0,0,0-.15-.46A.93.93,0,0,0,72.16,60.84Z" transform="translate(0 -8.28)"/></g><g id="Orange_" data-name="Orange បាគង"><path class="cls-1" d="M78.79,40V31.61l3.36-3.36V43.39l-3.36,3.36V43.39H70.38L67,40V21.52l3.37-3.37h18.5l3.36,3.37V40l-3.36,3.37V21.52H70.38V40Z" transform="translate(0 -8.28)"/><path class="cls-1" d="M102.67,21.52l-3.36-3.37h15.14l-3.37,3.37ZM99.31,40V26.57l3.36-3.37h8.41l3.37,3.37V40l-3.37,3.37V26.57h-8.41V38.34L106,35v5l-3.37,3.37Z" transform="translate(0 -8.28)"/><path class="cls-1" d="M136.32,18.15,138,19.84v1.68l-1.68,1.68V40L133,43.39h-8.41L121.18,40V24.88L119.5,23.2h5V40h2.53V38.34h3.36V40H133V21.52H119.5V18.15l3.36-3.36v3.36Z" transform="translate(0 -8.28)"/><path class="cls-1" d="M78.79,40V31.61l3.36-3.36V43.39l-3.36,3.36V43.39H70.38L67,40V21.52l3.37-3.37h18.5l3.36,3.37V40l-3.36,3.37V21.52H70.38V40Z" transform="translate(0 -8.28)"/><path class="cls-1" d="M102.67,21.52l-3.36-3.37h15.14l-3.37,3.37ZM99.31,40V26.57l3.36-3.37h8.41l3.37,3.37V40l-3.37,3.37V26.57h-8.41V38.34L106,35v5l-3.37,3.37Z" transform="translate(0 -8.28)"/><path class="cls-1" d="M136.32,18.15,138,19.84v1.68l-1.68,1.68V40L133,43.39h-8.41L121.18,40V24.88L119.5,23.2h5V40h2.53V38.34h3.36V40H133V21.52H119.5V18.15l3.36-3.36v3.36Z" transform="translate(0 -8.28)"/></g></g></g></svg>